<svg width="0" height="0" class="hidden">
	<symbol
		xmlns="http://www.w3.org/2000/svg" viewBox="0 0 17 15" id="attachments">
		<path d="M15.453 1.465a3.41 3.41 0 00-4.813 0L3.488 8.651a2.042 2.042 0 000 2.896 2.042 2.042 0 002.896 0l4.43-4.466a.674.674 0 000-.976.674.674 0 00-.977 0l-4.465 4.43a.653.653 0 01-.907 0 .653.653 0 010-.907l7.151-7.186a2.022 2.022 0 012.826 0 2.022 2.022 0 010 2.825L7.29 12.453c-1.326 1.326-3.454 1.326-4.744 0C1.22 11.128 1.22 9 2.547 7.71l6.418-6.418a.674.674 0 000-.977.674.674 0 00-.977 0L1.57 6.698c-1.85 1.849-1.85 4.883 0 6.732 1.849 1.85 4.883 1.85 6.732 0l7.151-7.15a3.41 3.41 0 000-4.815z"></path>
	</symbol>
	<symbol
		xmlns="http://www.w3.org/2000/svg" viewBox="0 0 512 511" id="compose">
		<path d="M405.332 256.484c-11.797 0-21.332 9.559-21.332 21.332v170.668c0 11.754-9.559 21.332-21.332 21.332H64c-11.777 0-21.332-9.578-21.332-21.332V149.816c0-11.754 9.555-21.332 21.332-21.332h170.668c11.797 0 21.332-9.558 21.332-21.332 0-11.777-9.535-21.336-21.332-21.336H64c-35.285 0-64 28.715-64 64v298.668c0 35.286 28.715 64 64 64h298.668c35.285 0 64-28.714 64-64V277.816c0-11.796-9.54-21.332-21.336-21.332zm0 0"></path>
		<path d="M200.02 237.05a10.793 10.793 0 00-2.922 5.438l-15.082 75.438c-.703 3.496.406 7.101 2.922 9.64a10.673 10.673 0 007.554 3.114c.68 0 1.387-.063 2.09-.211l75.414-15.082c2.09-.43 3.988-1.43 5.461-2.926l168.79-168.79-75.415-75.41zM496.383 16.102c-20.797-20.801-54.633-20.801-75.414 0l-29.524 29.523 75.414 75.414 29.524-29.527C506.453 81.465 512 68.066 512 53.816s-5.547-27.648-15.617-37.714zm0 0"></path>
	</symbol>
	<symbol
		xmlns="http://www.w3.org/2000/svg" viewBox="0 0 15 15" id="draft">
		<path d="M14.748 5.564A7.5 7.5 0 119.438.252c.224.06.573.382.366.812-.208.43-.633.326-.633.326a6.333 6.333 0 104.45 4.48c-.045-.173-.023-.577.393-.708.416-.13.691.226.734.402zm-3.035-4.258a.4.4 0 01.565.002l1.413 1.414a.4.4 0 01.003.565L7.182 9.8a.4.4 0 01-.565-.003L5.203 8.383a.4.4 0 01-.002-.565l6.512-6.512zm1.129-1.13a.601.601 0 01.85 0l1.132 1.13a.602.602 0 01-.001.852l-.28.28a.401.401 0 01-.569 0l-1.413-1.413a.4.4 0 010-.567l.281-.281zm-9.267 11.25c.39.39 2.688-.876 2.688-.876.196-.103.227-.314.07-.47L4.92 8.665c-.157-.157-.369-.124-.47.07 0 0-1.265 2.3-.875 2.69z"></path>
	</symbol>
	<symbol
		xmlns="http://www.w3.org/2000/svg" viewBox="0 0 15 15" id="inbox">
		<path d="M13.5 1.5v12h-12v-12h12zm0-1.5h-12C.675 0 0 .675 0 1.5v12c0 .825.675 1.5 1.5 1.5h12c.825 0 1.5-.675 1.5-1.5v-12c0-.825-.675-1.5-1.5-1.5z"></path>
		<path d="M9.75 10.5c0 1.275-.975 2.25-2.25 2.25s-2.25-.975-2.25-2.25H0v3c0 .825.675 1.5 1.5 1.5h12c.825 0 1.5-.675 1.5-1.5v-3H9.75z"></path>
	</symbol>
	<symbol
		xmlns="http://www.w3.org/2000/svg" viewBox="0 0 15 15" id="more">
		<path d="M4.518.065A4.52 4.52 0 000 4.584v5.783a4.52 4.52 0 004.518 4.518h5.783a4.52 4.52 0 004.518-4.518V4.584A4.52 4.52 0 0010.301.065H4.518zm0 1.085h5.783a3.414 3.414 0 013.434 3.434v5.783A3.414 3.414 0 0110.3 13.8H4.518a3.414 3.414 0 01-3.434-3.433V4.584A3.414 3.414 0 014.518 1.15zm-.904 5.06a1.265 1.265 0 100 2.53 1.265 1.265 0 000-2.53zm3.796 0a1.265 1.265 0 100 2.53 1.265 1.265 0 000-2.53zm3.795 0a1.265 1.265 0 100 2.53 1.265 1.265 0 000-2.53z"></path>
	</symbol>
	<symbol
		xmlns="http://www.w3.org/2000/svg" viewBox="0 0 16 14" id="sent">
		<path d="M14.814.1L.592 5.605c-.799.309-.788.784.025 1.055l3.577 1.195 1.39 4.336c.166.547.633.664 1.037.26l1.905-1.91.024-.023 3.49 2.638c.683.517 1.383.252 1.556-.588l2.357-11.503c.173-.84-.34-1.274-1.139-.965zm-2.31 3.077l-5.918 5.55-.001.001a.753.753 0 00-.202.429l-.157 1.822c-.08.907-.223.592-.397.047L4.697 7.538l7.418-4.75c1.147-.716 1.147-.304.389.39z"></path>
	</symbol>
	<symbol
		xmlns="http://www.w3.org/2000/svg" viewBox="0 0 13 15" id="trash">
		<path d="M1.07 14.019c0 .514.418.93.933.93h8.408a.932.932 0 00.935-.93v-9.58H1.07v9.58zm7.412-8.657h1.449v7.747a.723.723 0 01-1.448 0V5.362zm-2.998 0h1.45v7.747a.723.723 0 01-1.45 0V5.362zm-3.02 0H3.91v7.747a.723.723 0 01-1.447 0V5.362zm8.88-4.316c.516 0 .935.418.935.932v1.53H.136v-1.53c0-.514.418-.932.934-.932h3.67v-.53S4.722.05 5.19.05h2.003c.467 0 .484.466.484.466v.53h3.667z"></path>
	</symbol>
	<symbol
		xmlns="http://www.w3.org/2000/svg" viewBox="0 0 15 15" id="search">
		<path d="M14.9 14.167l-3.943-3.943a6.213 6.213 0 10-.732.732l3.942 3.943a.346.346 0 00.488 0l.244-.244a.346.346 0 000-.488zM1.035 6.213a5.184 5.184 0 015.177-5.177 5.184 5.184 0 015.178 5.177 5.184 5.184 0 01-5.178 5.178 5.184 5.184 0 01-5.177-5.178z"></path>
	</symbol>
	<symbol
		xmlns="http://www.w3.org/2000/svg" viewBox="0 0 11 6" id="down">
		<path d="M5.406 4.64L.922.155a.545.545 0 00-.763 0 .545.545 0 000 .764L4.84 5.603a.532.532 0 00.565.385.532.532 0 00.565-.385L10.654.92a.545.545 0 000-.764.545.545 0 00-.764 0L5.406 4.639z"></path>
	</symbol>
	<symbol
		xmlns="http://www.w3.org/2000/svg" viewBox="0 0 23 15" id="envelope">
		<circle cx="19.5" cy="3" r="3"></circle>
		<path d="M9.797 3H.834c-.52 0-.651.14-.53.492.071.206.394.38.587.478.515.272 7.678 4.177 7.945 4.317.267.141.539.207.96.207.423 0 .695-.066.962-.207.177-.093 3.404-1.85 5.698-3.098A3.732 3.732 0 0115.75 3H9.797z"></path>
		<path d="M12.994 8.31l3.853 4.337c.094.094.136.206.084.262-.056.052-.178.024-.276-.065l-4.622-3.9c-.699.45-1.19.76-1.275.806-.361.183-.614.206-.961.206s-.6-.023-.961-.206c-.09-.047-.577-.356-1.275-.806l-4.622 3.9c-.094.094-.22.122-.277.065-.056-.051-.014-.168.08-.262L6.591 8.31C4.308 6.834.82 4.378.436 4.18.023 3.971 0 4.22 0 4.411v9.61c0 .435.642.979 1.102.979h17.39c.46 0 1.008-.548 1.008-.98V6.75a3.737 3.737 0 01-2.617-1.065c-1.219.839-2.71 1.863-3.89 2.626z"></path>
	</symbol>
	<symbol
		xmlns="http://www.w3.org/2000/svg" viewBox="0 0 15 15" id="exit">
		<path d="M6.82 6.881H2.06l1.029-1.088a.62.62 0 10-.903-.851L.181 7.062v.002l-.012.012c-.025.026-.036.058-.055.086-.024.035-.052.067-.068.107a.616.616 0 000 .466c.016.039.043.07.066.104.02.03.032.062.057.088l.011.012.001.001 2.005 2.119a.617.617 0 00.878.024.62.62 0 00.025-.876L2.06 8.122h4.76a.62.62 0 100-1.24z"></path>
		<path d="M12.55.26a.592.592 0 00-.109-.01H7.203c-.046 0-.092.006-.089.01C5.76.341 4.7 1.572 4.7 3.063c0 .34.258.617.577.617.318 0 .576-.277.576-.617 0-.86.6-1.552 1.413-1.58l5.214.005c.765.023 1.366.715 1.366 1.575v8.874c0 .86-.6 1.552-1.408 1.583l-5.217-.006c-.766-.025-1.367-.717-1.367-1.577 0-.34-.258-.616-.577-.616-.319 0-.577.276-.577.616 0 1.532 1.093 2.765 2.446 2.802.045.01.084.011.113.011h5.237a.274.274 0 00.086-.008C13.938 14.66 15 13.429 15 11.937V3.063C14.999 1.533 13.907.3 12.55.26zm-.109.213zM7.257 13.741z"></path>
	</symbol>
	<symbol
		xmlns="http://www.w3.org/2000/svg" viewBox="0 0 18 12" id="group">
		<path fill="#8E8E93" fill-rule="evenodd" d="M0 .827c0 .407.33.737.738.737h15.836a.738.738 0 000-1.475H.738A.738.738 0 000 .827zm0 3.426c0 .407.33.738.738.738h15.836a.738.738 0 000-1.476H.738A.738.738 0 000 4.253zm0 3.426c0 .408.33.738.738.738h15.836a.738.738 0 000-1.475H.738A.738.738 0 000 7.679zm0 3.426c0 .408.33.738.738.738H7.13a.738.738 0 000-1.475H.738a.738.738 0 00-.738.737z"></path>
	</symbol>
	<symbol
		xmlns="http://www.w3.org/2000/svg" viewBox="0 0 15 15" id="tag">
		<path fill="#8E8E93" d="M6.588.371A1.204 1.204 0 005.706 0H1.237A1.24 1.24 0 000 1.237v4.438c0 .325.124.634.356.866l8.04 8.041c.248.248.558.356.882.356.31 0 .634-.124.866-.356l4.438-4.407a1.209 1.209 0 00.016-1.732L6.588.371z"></path>
		<path fill="#FFF" d="M3.093 1.856a1.24 1.24 0 00-1.237 1.237c0 .68.556 1.237 1.237 1.237A1.24 1.24 0 004.33 3.093a1.24 1.24 0 00-1.237-1.237zm0 1.855a.62.62 0 01-.619-.618.62.62 0 01.619-.619.62.62 0 01.618.619.62.62 0 01-.618.618z"></path>
	</symbol>
	<symbol
		xmlns="http://www.w3.org/2000/svg" viewBox="0 0 12 15" id="alarm">
		<path d="M8.45 7.45H6.4v-2.3c0-.35-.3-.6-.6-.6s-.6.3-.6.6V8.1c0 .35.3.6.6.6h2.65c.35 0 .6-.3.6-.6s-.25-.65-.6-.65z"></path>
		<path d="M9.85 12.35c1.25-1.1 2.1-2.7 2.1-4.5 0-3.25-2.65-5.9-5.9-5.9a5.91 5.91 0 00-5.9 5.9c0 1.7.7 3.2 1.85 4.3l-1.05 1.8c-.2.3-.1.7.2.85.1.05.2.1.3.1.2 0 .4-.1.55-.3l1-1.65c.9.55 1.95.85 3.05.85 1 0 2-.25 2.8-.7l.9 1.5c.1.2.3.3.55.3.1 0 .2-.05.3-.1.3-.2.4-.55.2-.85l-.95-1.6zm-8.5-4.5C1.35 5.3 3.45 3.2 6 3.2c2.55 0 4.65 2.1 4.65 4.65 0 2.55-2.1 4.65-4.65 4.65-2.55 0-4.65-2.1-4.65-4.65zm6.6-6.5c1.05.3 2.05.9 2.8 1.7.1.1.3.2.45.2.15 0 .3-.05.45-.2.25-.25.25-.65 0-.9-.95-.95-2.1-1.6-3.35-2-.35-.1-.7.1-.8.4-.05.35.15.7.45.8zM.8 3.25c.15 0 .3-.05.45-.2.8-.8 1.75-1.35 2.8-1.7.35-.1.5-.45.4-.8-.1-.35-.45-.5-.8-.4-1.25.4-2.4 1.05-3.35 2-.25.25-.25.65 0 .9.15.15.3.2.5.2z"></path>
	</symbol>
	 <symbol xmlns="http://www.w3.org/2000/svg" viewBox="0 0 511.992 511.992" id="reply">
    <path d="M255.992 175.994h-64v-96a15.949 15.949 0 00-10.24-14.912c-6.112-2.432-13.152-.768-17.6 4.16l-160 176c-5.536 6.112-5.536 15.424 0 21.536l160 176c3.104 3.36 7.424 5.216 11.84 5.216 1.952 0 3.904-.352 5.76-1.056a16.023 16.023 0 0010.24-14.944v-96h33.6c97.856 0 189.856 38.112 259.072 107.328 4.608 4.608 11.52 5.952 17.44 3.456 5.984-2.464 9.888-8.32 9.888-14.784 0-141.152-114.848-256-256-256z"></path>
  </symbol>
  <symbol xmlns="http://www.w3.org/2000/svg" viewBox="0 0 612.675 612.675" id="attachment">
	<path d="M581.209 223.007L269.839 530.92c-51.592 51.024-135.247 51.024-186.839 0-51.592-51.023-51.592-133.737 0-184.761L363.248 69.04c34.402-34.009 90.15-34.009 124.553 0 34.402 34.008 34.402 89.166 0 123.174l-280.249 277.12c-17.19 17.016-45.075 17.016-62.287 0-17.19-16.993-17.19-44.571 0-61.587L394.37 161.42l-31.144-30.793-249.082 246.348c-34.402 34.009-34.402 89.166 0 123.174 34.402 34.009 90.15 34.009 124.552 0l280.249-277.12c51.592-51.023 51.592-133.737 0-184.761-51.593-51.023-135.247-51.023-186.839 0L36.285 330.784l1.072 1.071c-53.736 68.323-49.012 167.091 14.5 229.88 63.512 62.79 163.35 67.492 232.46 14.325l1.072 1.072 326.942-323.31-31.122-30.815z"></path>
</symbol>
</svg>
