<svg width="0" height="0" class="hidden">
  <symbol xmlns="http://www.w3.org/2000/svg" viewBox="0 0 17 15" id="attachments">
    <path d="M15.453 1.465a3.41 3.41 0 00-4.813 0L3.488 8.651a2.042 2.042 0 000 2.896 2.042 2.042 0 002.896 0l4.43-4.466a.674.674 0 000-.976.674.674 0 00-.977 0l-4.465 4.43a.653.653 0 01-.907 0 .653.653 0 010-.907l7.151-7.186a2.022 2.022 0 012.826 0 2.022 2.022 0 010 2.825L7.29 12.453c-1.326 1.326-3.454 1.326-4.744 0C1.22 11.128 1.22 9 2.547 7.71l6.418-6.418a.674.674 0 000-.977.674.674 0 00-.977 0L1.57 6.698c-1.85 1.849-1.85 4.883 0 6.732 1.849 1.85 4.883 1.85 6.732 0l7.151-7.15a3.41 3.41 0 000-4.815z"></path>
  </symbol>
   <symbol xmlns="http://www.w3.org/2000/svg" viewBox="0 0 512 511" id="compose">
    <path d="M405.332 256.484c-11.797 0-21.332 9.559-21.332 21.332v170.668c0 11.754-9.559 21.332-21.332 21.332H64c-11.777 0-21.332-9.578-21.332-21.332V149.816c0-11.754 9.555-21.332 21.332-21.332h170.668c11.797 0 21.332-9.558 21.332-21.332 0-11.777-9.535-21.336-21.332-21.336H64c-35.285 0-64 28.715-64 64v298.668c0 35.286 28.715 64 64 64h298.668c35.285 0 64-28.714 64-64V277.816c0-11.796-9.54-21.332-21.336-21.332zm0 0"></path>
    <path d="M200.02 237.05a10.793 10.793 0 00-2.922 5.438l-15.082 75.438c-.703 3.496.406 7.101 2.922 9.64a10.673 10.673 0 007.554 3.114c.68 0 1.387-.063 2.09-.211l75.414-15.082c2.09-.43 3.988-1.43 5.461-2.926l168.79-168.79-75.415-75.41zM496.383 16.102c-20.797-20.801-54.633-20.801-75.414 0l-29.524 29.523 75.414 75.414 29.524-29.527C506.453 81.465 512 68.066 512 53.816s-5.547-27.648-15.617-37.714zm0 0"></path>
  </symbol>
  <symbol xmlns="http://www.w3.org/2000/svg" viewBox="0 0 15 15" id="draft">
    <path d="M14.748 5.564A7.5 7.5 0 119.438.252c.224.06.573.382.366.812-.208.43-.633.326-.633.326a6.333 6.333 0 104.45 4.48c-.045-.173-.023-.577.393-.708.416-.13.691.226.734.402zm-3.035-4.258a.4.4 0 01.565.002l1.413 1.414a.4.4 0 01.003.565L7.182 9.8a.4.4 0 01-.565-.003L5.203 8.383a.4.4 0 01-.002-.565l6.512-6.512zm1.129-1.13a.601.601 0 01.85 0l1.132 1.13a.602.602 0 01-.001.852l-.28.28a.401.401 0 01-.569 0l-1.413-1.413a.4.4 0 010-.567l.281-.281zm-9.267 11.25c.39.39 2.688-.876 2.688-.876.196-.103.227-.314.07-.47L4.92 8.665c-.157-.157-.369-.124-.47.07 0 0-1.265 2.3-.875 2.69z"></path>
  </symbol>
  <symbol xmlns="http://www.w3.org/2000/svg" viewBox="0 0 15 15" id="inbox">
    <g fill="#8E8E93" fill-rule="evenodd">
      <path d="M13.5 1.5v12h-12v-12h12zm0-1.5h-12C.675 0 0 .675 0 1.5v12c0 .825.675 1.5 1.5 1.5h12c.825 0 1.5-.675 1.5-1.5v-12c0-.825-.675-1.5-1.5-1.5z"></path>
      <path d="M9.75 10.5c0 1.275-.975 2.25-2.25 2.25s-2.25-.975-2.25-2.25H0v3c0 .825.675 1.5 1.5 1.5h12c.825 0 1.5-.675 1.5-1.5v-3H9.75z"></path>
    </g>
  </symbol>
  <symbol xmlns="http://www.w3.org/2000/svg" viewBox="0 0 15 15" id="more">
    <path d="M4.518.065A4.52 4.52 0 000 4.584v5.783a4.52 4.52 0 004.518 4.518h5.783a4.52 4.52 0 004.518-4.518V4.584A4.52 4.52 0 0010.301.065H4.518zm0 1.085h5.783a3.414 3.414 0 013.434 3.434v5.783A3.414 3.414 0 0110.3 13.8H4.518a3.414 3.414 0 01-3.434-3.433V4.584A3.414 3.414 0 014.518 1.15zm-.904 5.06a1.265 1.265 0 100 2.53 1.265 1.265 0 000-2.53zm3.796 0a1.265 1.265 0 100 2.53 1.265 1.265 0 000-2.53zm3.795 0a1.265 1.265 0 100 2.53 1.265 1.265 0 000-2.53z"></path>
  </symbol>
  <symbol xmlns="http://www.w3.org/2000/svg" viewBox="0 0 16 14" id="sent">
    <path d="M14.814.1L.592 5.605c-.799.309-.788.784.025 1.055l3.577 1.195 1.39 4.336c.166.547.633.664 1.037.26l1.905-1.91.024-.023 3.49 2.638c.683.517 1.383.252 1.556-.588l2.357-11.503c.173-.84-.34-1.274-1.139-.965zm-2.31 3.077l-5.918 5.55-.001.001a.753.753 0 00-.202.429l-.157 1.822c-.08.907-.223.592-.397.047L4.697 7.538l7.418-4.75c1.147-.716 1.147-.304.389.39z"></path>
  </symbol>
  <symbol xmlns="http://www.w3.org/2000/svg" viewBox="0 0 13 15" id="trash">
    <path d="M1.07 14.019c0 .514.418.93.933.93h8.408a.932.932 0 00.935-.93v-9.58H1.07v9.58zm7.412-8.657h1.449v7.747a.723.723 0 01-1.448 0V5.362zm-2.998 0h1.45v7.747a.723.723 0 01-1.45 0V5.362zm-3.02 0H3.91v7.747a.723.723 0 01-1.447 0V5.362zm8.88-4.316c.516 0 .935.418.935.932v1.53H.136v-1.53c0-.514.418-.932.934-.932h3.67v-.53S4.722.05 5.19.05h2.003c.467 0 .484.466.484.466v.53h3.667z"></path>
  </symbol>
  <symbol xmlns="http://www.w3.org/2000/svg" viewBox="0 0 15 15" id="search">
    <path d="M14.9 14.167l-3.943-3.943a6.213 6.213 0 10-.732.732l3.942 3.943a.346.346 0 00.488 0l.244-.244a.346.346 0 000-.488zM1.035 6.213a5.184 5.184 0 015.177-5.177 5.184 5.184 0 015.178 5.177 5.184 5.184 0 01-5.178 5.178 5.184 5.184 0 01-5.177-5.178z"></path>
  </symbol>
  <symbol xmlns="http://www.w3.org/2000/svg" viewBox="0 0 11 6" id="down">
    <path d="M5.406 4.64L.922.155a.545.545 0 00-.763 0 .545.545 0 000 .764L4.84 5.603a.532.532 0 00.565.385.532.532 0 00.565-.385L10.654.92a.545.545 0 000-.764.545.545 0 00-.764 0L5.406 4.639z"></path>
  </symbol>
</svg>